<svg version="1.1" id="Layer_1" xmlns="http://www.w3.org/2000/svg" xmlns:xlink="http://www.w3.org/1999/xlink" x="0px" y="0px"
	 width="100%" viewBox="0 0 512 512" enable-background="new 0 0 512 512" xml:space="preserve">
<path fill="#FFFFFF" opacity="1.000000" stroke="none" 
	d="
M1.000004,440.468628 
	C6.089008,431.122467 11.200645,422.257812 16.262356,413.364746 
	C27.272888,394.020020 38.280689,374.673615 49.246357,355.303436 
	C58.163937,339.551086 66.988106,323.745850 75.908775,307.995270 
	C87.047363,288.328705 98.270309,268.709869 109.404938,249.041092 
	C119.715614,230.827744 129.912476,212.549911 140.240997,194.346741 
	C155.322632,167.766541 170.517776,141.250702 185.588470,114.664322 
	C198.776688,91.398857 211.626831,67.938507 225.057190,44.814507 
	C237.695648,23.053980 265.400543,19.053625 283.973572,36.088753 
	C289.670349,41.313816 292.828766,48.489540 296.580719,55.116154 
	C311.465118,81.404678 326.240143,107.755249 341.010345,134.108261 
	C352.452026,154.522537 363.776215,175.002747 375.243652,195.402481 
	C388.094055,218.262436 401.085083,241.043320 413.943665,263.898682 
	C425.092682,283.715302 436.106323,303.608032 447.246307,323.429779 
	C457.083740,340.933990 467.040985,358.370880 476.894257,375.866272 
	C487.975677,395.542358 499.021667,415.238556 510.015808,434.963470 
	C511.135834,436.972961 511.794617,439.239471 512.833740,441.693359 
	C513.000000,448.021149 513.000000,454.042297 512.832031,460.834320 
	C506.381134,480.804535 490.996674,488.557831 472.090271,488.495300 
	C382.798157,488.200043 293.504486,488.359222 204.211395,488.358887 
	C148.736389,488.358673 93.260925,488.488464 37.786659,488.286774 
	C21.625130,488.228027 9.532087,480.947632 2.902344,465.720276 
	C2.437890,464.653534 2.300977,463.445892 1.000000,463.000000 
	C1.000000,455.645752 1.000000,448.291504 1.000004,440.468628 
M410.147949,296.279022 
	C398.696289,276.073608 387.182678,255.902954 375.810547,235.652863 
	C364.680969,215.834717 353.777039,195.889755 342.625610,176.084030 
	C329.849884,153.393417 316.853271,130.827194 304.061066,108.145782 
	C294.199036,90.659714 284.570160,73.042168 274.714111,55.552696 
	C267.140961,42.114227 250.224960,40.793968 242.047882,54.172836 
	C236.942352,62.526203 232.313461,71.170837 227.468964,79.683784 
	C214.234787,102.939392 200.983551,126.185310 187.769974,149.452606 
	C176.948013,168.508591 166.172089,187.590714 155.372879,206.659607 
	C142.034149,230.212738 128.690567,253.763092 115.352509,277.316589 
	C102.987640,299.151550 90.633743,320.992737 78.262939,342.824310 
	C69.338799,358.573303 60.391953,374.309448 51.460526,390.054352 
	C42.037563,406.665680 32.682762,423.316162 23.169529,439.875610 
	C19.598343,446.091888 17.470810,452.472137 20.975723,459.235077 
	C24.760433,466.537933 31.062185,469.701477 39.374794,469.697632 
	C184.355011,469.630920 329.335297,469.646332 474.315552,469.660706 
	C481.755829,469.661438 487.963806,467.573364 492.063477,460.757996 
	C496.426483,453.504883 494.775513,446.906036 490.895203,440.117340 
	C482.336456,425.143646 473.988495,410.049408 465.570221,394.995514 
	C457.472290,380.514526 449.423553,366.005951 441.300018,351.539368 
	C431.067413,333.316895 420.780914,315.124725 410.147949,296.279022 
z"/>
<path fill="#FFFFFF" opacity="1.000000" stroke="none" 
	d="
M258.870178,307.645752 
	C275.518616,307.866455 289.719696,321.499603 291.478363,337.457001 
	C292.835388,349.769897 292.503418,362.064270 292.196167,374.331238 
	C291.713379,393.607544 282.225189,406.551056 263.339661,410.833344 
	C244.848602,415.026184 224.550232,400.464752 222.622986,381.490234 
	C221.174896,367.233215 221.527161,353.022919 222.431473,338.730469 
	C223.497177,321.886780 239.487045,305.654755 258.870178,307.645752 
M264.877960,328.474121 
	C253.525513,322.587128 242.960846,330.053802 241.528519,339.030090 
	C239.430573,352.178009 239.509491,365.484497 241.362503,378.688904 
	C242.441635,386.378815 249.459320,392.513519 256.602692,392.649445 
	C264.309631,392.796112 271.184845,386.983673 272.634796,379.016937 
	C274.738098,367.460571 273.574768,355.794952 273.441772,344.192749 
	C273.372101,338.117065 270.990875,332.499298 264.877960,328.474121 
z"/>
<path fill="#FFFFFF" opacity="1.000000" stroke="none" 
	d="
M329.734833,369.557556 
	C329.006226,373.247009 328.956635,375.775421 333.685150,375.735443 
	C341.222260,375.671722 341.575195,375.709381 341.632355,370.344025 
	C341.689087,365.014862 341.783173,359.680573 341.611816,354.356537 
	C341.504028,351.007568 342.602081,349.702637 346.145264,349.595032 
	C360.341766,349.163879 360.338715,349.052429 360.347656,363.133118 
	C360.349030,365.298309 360.495178,367.476257 360.311859,369.625916 
	C359.984589,373.463318 360.538544,376.289703 365.452698,375.746063 
	C367.615021,375.506805 368.305481,376.985107 368.301025,378.925476 
	C368.294891,381.590118 368.283600,384.255951 368.351440,386.919281 
	C368.454803,390.975891 369.092224,395.260864 362.633575,394.523285 
	C360.702942,394.302795 360.372681,396.102600 360.363861,397.712799 
	C360.346558,400.877197 360.236084,404.044708 360.341003,407.205078 
	C360.438446,410.139679 359.297180,411.620850 356.252319,411.337402 
	C356.087463,411.322052 355.919312,411.337402 355.752960,411.344208 
	C342.312897,411.893646 342.222717,411.897369 341.694061,398.721222 
	C341.564941,395.503693 340.447662,394.256714 337.237793,394.333191 
	C331.245239,394.476013 325.246765,394.399170 319.250977,394.368744 
	C309.791107,394.320770 305.898834,389.577850 307.952209,380.230469 
	C313.142456,356.603577 318.473541,333.007629 323.719116,309.392822 
	C324.392670,306.360718 326.004913,305.123138 329.093231,306.070374 
	C330.516449,306.506897 331.971161,306.845123 333.419800,307.193878 
	C343.256104,309.562042 343.327728,309.574951 341.161713,319.298157 
	C337.456146,335.932434 333.651886,352.544739 329.734833,369.557556 
z"/>
<path fill="#FFFFFF" opacity="1.000000" stroke="none" 
	d="
M151.236633,356.452850 
	C154.762711,340.851807 158.196213,325.656006 161.453842,310.422577 
	C162.286514,306.528839 163.865768,304.724487 167.976593,306.405701 
	C169.340454,306.963531 170.857971,307.160522 172.316467,307.469574 
	C181.353012,309.384155 181.253738,309.356262 179.194580,318.385376 
	C175.182007,335.979919 171.288773,353.601746 167.365875,371.216614 
	C167.119965,372.320862 167.044556,373.463043 166.866928,374.753754 
	C170.347916,376.384369 173.855286,375.621033 177.245255,375.470886 
	C179.798141,375.357819 179.620117,373.113770 179.629471,371.282593 
	C179.659225,365.450867 179.739426,359.617310 179.626144,353.787872 
	C179.568512,350.822876 180.709518,349.782623 183.711533,349.619659 
	C198.334274,348.825867 198.330139,348.746704 198.346054,363.201599 
	C198.348618,365.534332 198.471115,367.874969 198.321411,370.197968 
	C198.099121,373.647552 198.602707,376.213684 203.031509,375.709106 
	C205.759552,375.398346 206.373352,377.169373 206.328781,379.489288 
	C206.274368,382.320587 206.232605,385.159180 206.371689,387.985443 
	C206.560150,391.815308 206.457413,395.126251 201.063004,394.481049 
	C198.899353,394.222290 198.341354,395.919220 198.348755,397.808533 
	C198.361145,400.974213 198.227280,404.143982 198.348373,407.304657 
	C198.464615,410.338287 197.129791,411.488068 194.169006,411.364807 
	C190.842407,411.226257 187.495728,411.176971 184.175674,411.380524 
	C180.578674,411.601074 179.693451,409.898926 179.600693,406.610992 
	C179.255234,394.364807 179.165527,394.367432 166.628418,394.374695 
	C163.629181,394.376434 160.629883,394.388031 157.630692,394.376862 
	C147.747101,394.339966 143.987579,389.798187 145.966293,380.145935 
	C147.097198,374.629364 148.398911,369.147919 149.614395,363.648590 
	C150.115097,361.383179 150.591339,359.112427 151.236633,356.452850 
z"/>
<path fill="#FFFFFF" opacity="1.000000" stroke="none" 
	d="
M266.339661,160.006256 
	C266.340973,182.456284 266.208374,204.409363 266.446503,226.358414 
	C266.499542,231.245621 264.916504,232.570190 260.185486,232.476608 
	C247.653915,232.228714 247.649689,232.428162 247.649658,219.755753 
	C247.649582,197.305222 247.645111,174.854706 247.652908,152.404175 
	C247.655228,145.704269 247.671173,145.704269 254.072296,145.658447 
	C266.333984,145.570679 266.333984,145.570679 266.339294,158.011093 
	C266.339508,158.510010 266.339447,159.008911 266.339661,160.006256 
z"/>
<path fill="#FFFFFF" opacity="1.000000" stroke="none" 
	d="
M247.685791,251.159607 
	C247.794250,250.187469 247.717850,249.562988 247.993866,249.235825 
	C249.452560,247.506927 264.008423,246.786148 265.502899,248.416489 
	C266.877106,249.915619 266.289520,251.888382 266.310730,253.656006 
	C266.464752,266.519928 266.443085,266.351318 253.523865,266.465210 
	C249.051041,266.504669 247.114899,265.221558 247.595688,260.581665 
	C247.901367,257.631927 247.659760,254.625473 247.685791,251.159607 
z"/>
</svg>